<svg xmlns="http://www.w3.org/2000/svg" xmlns:xlink="http://www.w3.org/1999/xlink" data-name="Layer 1" width="717.67" height="453.964" viewBox="0 0 717.6700439453125 453.9643249511719" preserveAspectRatio="xMinYMin meet" ><rect id="svgEditorBackground" x="0" y="0" width="717.6700439453125" height="453.9643249511719" style="fill:none;stroke:none"/><defs id="svgEditorDefs"><linearGradient gradientUnits="objectBoundingBox" id="lgrd2-fire" spreadMethod="pad" x1="0%" x2="100%" y1="0%" y2="0%"><stop offset="0%" style="stop-color:rgb(255,255,0);stop-opacity:1"/><stop offset="100%" style="stop-color:rgb(255,0,0);stop-opacity:1"/></linearGradient><linearGradient gradientTransform="rotate(90)" gradientUnits="objectBoundingBox" id="lgrd3-a" spreadMethod="repeat" x1="10%" x2="20%" y1="20%" y2="20%"><stop offset="5%" stop-color="#babc91" stop-opacity="1"/><stop offset="50%" stop-color="#c8d591" stop-opacity="1"/><stop offset="90%" stop-color="#afd591" stop-opacity="1"/></linearGradient><linearGradient gradientUnits="objectBoundingBox" id="lgrd2-b-reflect" spreadMethod="reflect" x1="0%" x2="10%" y1="0%" y2="10%"><stop offset="5%" stop-color="#babc91" stop-opacity="1"/><stop offset="95%" stop-color="#c8d591" stop-opacity="1"/></linearGradient><linearGradient gradientUnits="objectBoundingBox" id="lgrd2-black-white" spreadMethod="pad" x1="0%" x2="100%" y1="0%" y2="100%"><stop offset="0%" stop-color="black"/><stop offset="100%" stop-color="white"/></linearGradient></defs><path d="M542.608316,330.799759a3.82674,3.82674,0,0,1,-18.614917,-20.635312a5.82854,5.82854,0,0,1,-0.6787,-0.24764a2.863606,2.863606,0,0,0,-0.543805,-3.752031a1.395894,1.395894,0,1,0,-1.463105,2.332861a3.372621,3.372621,0,1,0,-4.055139,4.725996a80.153205,80.153205,0,0,1,-2.309288,-14.874027c1.797037,-5.499109,0.608617,-12.873069,2.573867,-19.800009c2.87885,-10.119,11.95723,-17.39344,15.74893,-27.21118l-0.07399,-3.795654c5.13987,7.564084,5.28144,14.330654,3.97786,20.505394c-1.29657,6.187,-3.90949,11.99371,-5.97512,17.96023s0.977288,28.379553,-0.006482,26.32481c2.515529,7.119775,-2.091978,-4.68264,11.419889,18.466563Z" transform="translate(-255.61478 -237.96119)" style="fill:#AC8A0C;stroke:#D9B600"/><polygon points="230.469,157.098,218.295,212.779,271.469,230.098,263.65,157.098,230.469,157.098" style="fill:#FFC0AC;"/><path d="M861.31381,690.55887h24.09571V580.09012A107.65288,107.65288,0,0,0,777.87876,472.55887H553.94028A107.65288,107.65288,0,0,0,446.40952,580.09012V690.55887h24.0957V615.09012A108.65356,108.65356,0,0,1,579.036,506.55887H752.78305A108.65356,108.65356,0,0,1,861.31381,615.09012Z" transform="translate(-255.61478 -237.96119)" fill="#e6e6e6"/><path d="M568.509,632.7673l-25.68043-7.775a88.4837,88.4837,0,0,1-2.50888-20.963,8.39912,8.39912,0,0,1,13.815-6.35513c13.77338,11.81381,33.94829,18.11782,46.96791,31.58028a52.07341,52.07341,0,0,1,13.888,42.946l5.621,18.18083a87.2586,87.2586,0,0,1-63.97667-35.28461,84.28716,84.28716,0,0,1-10.12173-18.565C557.40487,635.29616,568.509,632.7673,568.509,632.7673Z" transform="translate(-255.61478 -237.96119)" fill="#f2f2f2"/><path d="M635.438,662.5404l13.09791-3.96554q.02533-.10428.0502-.2087a8.409,8.409,0,0,0-12.48265-9.09359c-5.94563,3.532-12.54779,6.57335-17.28929,11.47613a26.55922,26.55922,0,0,0-7.08337,21.904l-2.86689,9.27285a44.50485,44.50485,0,0,0,32.6303-17.99636,42.98864,42.98864,0,0,0,5.16243-9.46881C641.10146,663.83021,635.438,662.5404,635.438,662.5404Z" transform="translate(-255.61478 -237.96119)" fill="#f2f2f2"/><path d="M741.46337,391.0911H690.45778a2.72143,2.72143,0,0,0-2.71731,2.72433v80.57381h56.44722V393.81543A2.7229,2.7229,0,0,0,741.46337,391.0911Zm-25.3312,45.78106a6.05117,6.05117,0,0,1-6.02292-6.02289v-9.29349a6.02291,6.02291,0,0,1,12.04581,0v9.29349a6.05109,6.05109,0,0,1-6.02289,6.02289Z" transform="translate(-255.61478 -237.96119)" fill="#3f3d56"/><path d="M825.92405,265.34656H607.895a7.07769,7.07769,0,0,0,-7.06643,7.06638V419.53985a7.07318,7.07318,0,0,0,7.06643,7.06638h218.029a7.07318,7.07318,0,0,0,7.06643,-7.06638V272.41294A7.07769,7.07769,0,0,0,825.92405,265.34656Z" transform="translate(-255.61478 -237.96119)" fill="#3f3d56"/><path d="M824.10413,270.4505H609.71662a3.78733,3.78733,0,0,0-3.7791,3.787V417.71769a3.78562,3.78562,0,0,0,3.7791,3.7791H824.10413a3.78562,3.78562,0,0,0,3.7791-3.7791V274.23747A3.78733,3.78733,0,0,0,824.10413,270.4505Z" transform="translate(-255.61478 -237.96119)" fill="#fff"/><path d="M687.56538,471.812v7.77377a1.52285,1.52285,0,0,0,1.51976,1.51972h53.75792a1.52739,1.52739,0,0,0,1.51972-1.51972V471.812Z" transform="translate(-255.61478 -237.96119)" fill="#3f3d56"/><path d="M782.34508,483.81055H654.7962a2.34634,2.34634,0,0,1-2.296-2.82966l1.97916-9.39973a2.35648,2.35648,0,0,1,2.29564-1.86291H780.36631a2.35648,2.35648,0,0,1,2.29565,1.86291l1.97915,9.39973a2.34634,2.34634,0,0,1-2.296,2.82966Z" transform="translate(-255.61478 -237.96119)" fill="#3f3d56"/><rect x="402.06594" y="233.44964" width="3.92838" height="2.35703" rx="0.48819" fill="#e6e6e6"/><rect x="409.92271" y="233.44964" width="3.92838" height="2.35703" rx="0.48819" fill="#e6e6e6"/><rect x="417.77947" y="233.44964" width="3.92838" height="2.35703" rx="0.48819" fill="#e6e6e6"/><rect x="425.63623" y="233.44964" width="3.92838" height="2.35703" rx="0.48819" fill="#e6e6e6"/><rect x="433.493" y="233.44964" width="3.92838" height="2.35703" rx="0.48819" fill="#e6e6e6"/><rect x="441.34976" y="233.44964" width="3.92838" height="2.35703" rx="0.48819" fill="#e6e6e6"/><rect x="449.20652" y="233.44964" width="3.92838" height="2.35703" rx="0.48819" fill="#e6e6e6"/><rect x="457.06329" y="233.44964" width="3.92838" height="2.35703" rx="0.48819" fill="#e6e6e6"/><rect x="464.92005" y="233.44964" width="3.92838" height="2.35703" rx="0.48819" fill="#e6e6e6"/><rect x="472.77682" y="233.44964" width="3.92838" height="2.35703" rx="0.48819" fill="#e6e6e6"/><rect x="480.63358" y="233.44964" width="3.92838" height="2.35703" rx="0.48819" fill="#e6e6e6"/><rect x="488.49034" y="233.44964" width="3.92838" height="2.35703" rx="0.48819" fill="#e6e6e6"/><rect x="496.34711" y="233.44964" width="3.92838" height="2.35703" rx="0.48819" fill="#e6e6e6"/><rect x="504.20387" y="233.44964" width="3.92838" height="2.35703" rx="0.48819" fill="#e6e6e6"/><rect x="512.06064" y="233.44964" width="3.92838" height="2.35703" rx="0.48819" fill="#e6e6e6"/><rect x="519.9174" y="233.44964" width="3.92838" height="2.35703" rx="0.48819" fill="#e6e6e6"/><rect x="401.9731" y="237.37802" width="3.92838" height="2.35703" rx="0.48819" fill="#e6e6e6"/><rect x="409.82987" y="237.37802" width="3.92838" height="2.35703" rx="0.48819" fill="#e6e6e6"/><rect x="417.68663" y="237.37802" width="3.92838" height="2.35703" rx="0.48819" fill="#e6e6e6"/><rect x="425.54339" y="237.37802" width="3.92838" height="2.35703" rx="0.48819" fill="#e6e6e6"/><rect x="433.40016" y="237.37802" width="3.92838" height="2.35703" rx="0.48819" fill="#e6e6e6"/><rect x="441.25692" y="237.37802" width="3.92838" height="2.35703" rx="0.48819" fill="#e6e6e6"/><rect x="449.11369" y="237.37802" width="3.92838" height="2.35703" rx="0.48819" fill="#e6e6e6"/><rect x="456.97045" y="237.37802" width="3.92838" height="2.35703" rx="0.48819" fill="#e6e6e6"/><rect x="464.82721" y="237.37802" width="3.92838" height="2.35703" rx="0.48819" fill="#e6e6e6"/><rect x="472.68398" y="237.37802" width="3.92838" height="2.35703" rx="0.48819" fill="#e6e6e6"/><rect x="480.54074" y="237.37802" width="3.92838" height="2.35703" rx="0.48819" fill="#e6e6e6"/><rect x="488.39751" y="237.37802" width="3.92838" height="2.35703" rx="0.48819" fill="#e6e6e6"/><rect x="496.25427" y="237.37802" width="3.92838" height="2.35703" rx="0.48819" fill="#e6e6e6"/><rect x="504.11103" y="237.37802" width="3.92838" height="2.35703" rx="0.48819" fill="#e6e6e6"/><rect x="511.9678" y="237.37802" width="3.92838" height="2.35703" rx="0.48819" fill="#e6e6e6"/><rect x="519.82456" y="237.37802" width="3.92838" height="2.35703" rx="0.48819" fill="#e6e6e6"/><rect x="439.68557" y="242.09208" width="31.42706" height="2.35703" rx="0.48819" fill="#e6e6e6"/><path d="M792.13789,306.46885v75.52a19.07267,19.07267,0,0,1-19.07,19.07h-94.52a19.08094,19.08094,0,0,1-17.51-11.49,17.9844,17.9844,0,0,1-1.13-3.51,17.36726,17.36726,0,0,0,6.3,1.17h94.52a17.60458,17.60458,0,0,0,17.58-17.58v-75.52a17.36787,17.36787,0,0,0-1.17-6.3,17.98805,17.98805,0,0,1,3.51,1.13A19.08093,19.08093,0,0,1,792.13789,306.46885Z" transform="translate(-255.61478 -237.96119)" fill="#f2f2f2"/><polygon points="183.897 368.973 174.522 374.778 146.903 340.828 160.739 332.262 183.897 368.973" style="fill:#FFC2AC;"/><path d="M447.60543,619.06017l-7.54133,3.36653-4.5245-6.519-.26914,8.65893-20.0014,8.92883a4.9238,4.9238,0,0,1-6.21365-7.05552l11.04809-18.1615-3.21326-7.198,17.248-6.49708Z" transform="translate(-255.61478 -237.96119)" fill="#2f2e41"/><path d="M413.24955,600.40319l15.8338-15.34432c-11.7637-29.02906-12.70376-47.02215-29.01206-82.13088,38.693,7.91409,66.35622,7.433,98.35619.33742,10.83323-2.3646,38.78551-23.95594,36.48735-35.02685q-.16112-.77624-.3807-1.538c-3.43482-11.7114-1.01609-29.64574-8.45078-42.64173-13.75489-5.18582-34.65268,12.32556-51,23-7.88255,5.14713-2.11233,12.1612-8,14l-22.569,7.32613-55.3725-8.943a20.51148,20.51148,0,0,0-23.37624,17.35929q-.14055.9018-.20361,1.81341c2.54779,14.10343,5.20366,27.83673,8.063,40.87333.923,4.20807-.6352,12.27539,2.8357,12.39545s2.07272,8.46395,3.15368,12.54322C386.2692,569.54028,390.47748,581.69383,413.24955,600.40319Z" transform="translate(-255.61478 -237.96119)" fill="#2f2e41"/><polygon points="127.329 429.745 117.562 424.647 133.015 383.711 147.43 391.235 127.329 429.745" style="fill:#FFC0AC;"/><path d="M381.31592,637.14483l15.6612,10.78289c19.19456,-27.75961,31.65753,-64.854,40.93905,-106.36c36.13851,-15.76472,67.76063,-33.80089,89.79648,-57.99314a20.9147,20.9147,0,0,0,-1.20931,-29.095q-.5784,-.5422,-1.196,-1.03885c-9.54471,-7.60285,-30.74283,-3.22816,-44.29181,-9.58275l-24.204,33.49961l2.78211,7.80252l-8.41994,4.099l-7.1092,3.46086l-8.13813,3.96175L409.24825,509.669a20.4837,20.4837,0,0,0,-9.089,27.62925q.40434,.81821,.87758,1.59992l-9.908,49.36015s2.72631,8.59307,-1.56348,7.789s-1.95215,9.72532,-1.95215,9.72532Z" transform="translate(-255.61478 -237.96119)" fill="#2f2e41"/><path d="M377.029,690.26656l-7.32146-3.82115,2.30077-7.5944-6.95466,5.16548-19.41828-10.13462a4.9238,4.9238,0,0,1,1.67253-9.25162l21.09632-2.61639,3.64718-6.98813,15.80243,9.48616Z" transform="translate(-255.61478 -237.96119)" fill="#2f2e41"/><path d="M590.50644,475.66465l-11.42309,-27.60578l-9,5l5.43524,28.0821a10.0012,10.0012,0,1,0,14.98785,-5.47632Z" transform="translate(-255.61478 -237.96119)" style="fill:#FFC0AC;"/><path d="M398.82273,257.36811l17.381,24.29955l7.633,-6.90918L412.18,248.63825a10.0012,10.0012,0,1,0,-13.35723,8.72986Z" transform="translate(-255.61478 -237.96119)" style="fill:#FFC0AC;"/><path d="M477.31168,411.38205c-11.2735,17.48627,30.02795,55.58585,51.77167,46.67682c3.80743,-1.56,16.90438,-6.71266,7.95219,-13.85633s1.03792,.851,1.274,-3.79932c.15787,-3.109,-2.24924,-9.9292,.26227,-9.63677s3.953,-6.97133,-1.51673,-8.82157a10.61794,10.61794,0,0,1,-7,-9c-.523,-19.16651,5.96782,-39.17735,5.96782,-39.17735l26.49793,67.73493s-.19573,11.71851,3.18337,8.13746s3.13322,8.00923,3.13322,8.00923s5.02458,3.50661,2.13523,5.45816s3.11066,7.95156,3.11066,7.95156l14,-1s-.21919,-10.4,-2.6096,-12.7s-1.21623,-5.919,-1.21623,-5.919s-4.92825,-4.58417,-2.05121,-9.98259s-20.951,-101.96148,-20.951,-101.96148a25.7199,25.7199,0,0,0,-18.366,-19.62039l-15.12093,-4.16334l-2.685,-10.6532H503.792l-3.70866,7l-34,-3s-33.64257,-30.60991,-32,-33s-3.57255,-7.98576,-3.57255,-7.98576s-4.45387,-1.45771,-1.94066,-2.236s-2.23723,-2.57768,-2.23723,-2.57768s-4.39964,-1.1561,-2.3246,-2.67834s-6.925,-2.52224,-6.925,-2.52224l-11.67717,9.52756l2.3601,4.00191s-1.439,5.44938,.439,3.46s2.23156,3.78393,2.23156,3.78393s.95909,6.32194,6.64648,8.22664s10,20,10,20l48,40c-7.31055,8.39115,-5.5705,17.166,.90564,26.14173Z" transform="translate(-255.61478 -237.96119)" fill="#d04ba6"/><circle cx="258.34259" cy="36.96382" r="23.0557" style="fill:#FFC0AC;"/><path d="M532.496538,263.1197c-1.825882,-0.536218,-10.485882,0.593782,-14.235882,1.293782c-3.68,0.69,-4.496555,-1.528236,-6.094118,-2.237227a63.024559,63.024559,0,0,0,-2.410039,-1.494506a81.19935,81.19935,0,0,0,-1.547916,-0.295408a1.721698,1.721698,0,0,1,0.738334,0.006792a0.286605,0.286605,0,0,0,0.460008,0.08724c-0.727253,-0.424147,-0.912773,0.013445,-1.099327,-0.063109c-2.826891,-0.693782,-4.846891,0.556218,-7.046891,0.996218c-2.46,0.49,-4.38,1.57,-3,10c2.83,17.34,17.55,23.53,15,35c-0.5,2.27,-1.76,5.11,-3.34,5.82a28.34378,28.34378,0,0,0,-2.37,-7.17a21.17806,21.17806,0,0,1,0.17005,6.6c-2.45,-2.65,-4.22,-11.91,-12.46,-19.25c-2.03,-1.8,-12.2,-12.48,-13.42,-15a32.13615,32.13615,0,0,1,0.54,6.11a29.41586,29.41586,0,0,1,-0.28,4.1a1.15145,1.15145,0,0,1,-0.03,0.26c-0.01,0.16,-0.04,0.3,-0.06,0.45c-0.02,0.17,-0.05,0.33,-0.08,0.5c-3.33,-0.48,-6.28,-1.06,-7.67,-2.42c-6.76,-6.58,1.49,-19.4,6,-31c6.45,-16.61,25.18,-18.82,27,-19c8.02,-0.81,21.57,0.91,28.295209,14.325586c2.570206,3.45685,2.09094,25.163589,0.118554,15.205505Z" transform="translate(-255.61478 -237.96119)" style="fill:#AC8B0B;stroke:#D1B000"/><path d="M499.94585,274.63302l-0.95435,-13.62147a25.43621,25.43621,0,0,1,-5.94937,-19.87917a34.83781,34.83781,0,0,0,-16.69955,21.60134c-2.17507,7.94685,-3.99622,11.99736,-8.5445,32.64648c-2.38353,9.41847,-3.33631,15.35028,-0.39278,18.52684c1.00646,1.11294,1.85281,1.09857,1.00286,0.52253c0.1522,0.5876,0.8801,0.23438,0.13578,0.1086c2.65333,1.79614,-0.92636,2.41632,23.40149,6.34833s21.55743,15.66701,15.42286,-29.47625Z" transform="translate(-255.61478 -237.96119)" style="fill-opacity:1;fill:rgb(173,138,12);stroke:#CFAE00"/><path d="M255.61478,689.91176a1.18648,1.18648,0,0,0,1.18292,1.19H972.09481a1.19,1.19,0,0,0,0-2.38h-715.29a1.18649,1.18649,0,0,0-1.19,1.183Z" transform="translate(-255.61478 -237.96119)" fill="#ccc"/><path d="M698.14954,332.81065H683.01746a1.51321,1.51321,0,0,1,0-3.02642h15.13208a1.51321,1.51321,0,0,1,0,3.02642Z" transform="translate(-255.61478 -237.96119)" fill="#d04ba6"/><path d="M725.38727,332.81065H710.2552a1.51321,1.51321,0,1,1,0-3.02642h15.13207a1.51321,1.51321,0,1,1,0,3.02642Z" transform="translate(-255.61478 -237.96119)" fill="#d04ba6"/><path d="M739.00614,344.91631H723.87407a1.51321,1.51321,0,1,1,0-3.02642h15.13207a1.51321,1.51321,0,1,1,0,3.02642Z" transform="translate(-255.61478 -237.96119)" fill="#d04ba6"/><path d="M711.8519,344.91631H683.01746a1.51321,1.51321,0,0,1,0-3.02642H711.8519a1.51321,1.51321,0,0,1,0,3.02642Z" transform="translate(-255.61478 -237.96119)" fill="#d04ba6"/><path d="M766.32737,332.81065H737.49293a1.51321,1.51321,0,0,1,0-3.02642h28.83444a1.51321,1.51321,0,1,1,0,3.02642Z" transform="translate(-255.61478 -237.96119)" fill="#d04ba6"/><path d="M708.50929,309.88668H679.67486a1.51321,1.51321,0,1,1,0-3.02641h28.83443a1.5132,1.5132,0,1,1,0,3.02641Z" transform="translate(-255.61478 -237.96119)" fill="#d04ba6"/><path d="M710.88008,318.72742a1.35512,1.35512,0,0,1-.83239-2.425l7.38326-5.73907a2.71359,2.71359,0,0,0,.328-3.9837l-6.19864-6.7106a1.35508,1.35508,0,1,1,1.99032-1.83946l9.20523,9.96483a1.3553,1.3553,0,0,1-.16344,1.98966l-10.88125,8.45819A1.35141,1.35141,0,0,1,710.88008,318.72742Z" transform="translate(-255.61478 -237.96119)" fill="#d04ba6"/><path d="M678.21581,318.72742a1.35512,1.35512,0,0,0,.83239-2.425l-7.38326-5.73907a2.71358,2.71358,0,0,1-.328-3.9837l6.19864-6.7106a1.35508,1.35508,0,0,0-1.99032-1.83946l-9.20523,9.96483a1.35531,1.35531,0,0,0,.16343,1.98966l10.88126,8.45819A1.35136,1.35136,0,0,0,678.21581,318.72742Z" transform="translate(-255.61478 -237.96119)" fill="#d04ba6"/><path d="M723.41551,370.86669H694.58108a1.51321,1.51321,0,0,1,0-3.02642h28.83443a1.51321,1.51321,0,0,1,0,3.02642Z" transform="translate(-255.61478 -237.96119)" fill="#d04ba6"/><path d="M728.49652,378.35231a1.35512,1.35512,0,0,1-.83239-2.425l7.38326-5.73907a2.71357,2.71357,0,0,0,.328-3.98369l-6.19864-6.71061a1.35508,1.35508,0,0,1,1.99032-1.83946l9.20523,9.96483a1.35531,1.35531,0,0,1-.16343,1.98966l-10.88125,8.4582A1.35146,1.35146,0,0,1,728.49652,378.35231Z" transform="translate(-255.61478 -237.96119)" fill="#d04ba6"/><path d="M678.21581,378.35231a1.35512,1.35512,0,0,0,.83239-2.425l-7.38326-5.73907a2.71357,2.71357,0,0,1-.328-3.98369l6.19864-6.71061a1.35508,1.35508,0,1,0-1.99032-1.83946l-9.20523,9.96483a1.35531,1.35531,0,0,0,.16343,1.98966l10.88126,8.4582A1.35142,1.35142,0,0,0,678.21581,378.35231Z" transform="translate(-255.61478 -237.96119)" fill="#d04ba6"/><path d="M680.78914,374.11256l6.06111-13.86516a1.51321,1.51321,0,0,1,2.773,1.21223l-6.06112,13.86515a1.51321,1.51321,0,1,1-2.773-1.21222Z" transform="translate(-255.61478 -237.96119)" fill="#d04ba6"/></svg>